<?xml version="1.0" standalone="no"?>
<!DOCTYPE svg PUBLIC "-//W3C//DTD SVG 20010904//EN"
 "http://www.w3.org/TR/2001/REC-SVG-20010904/DTD/svg10.dtd">
<svg version="1.0" xmlns="http://www.w3.org/2000/svg"
 width="612.000000pt" height="408.000000pt" viewBox="0 0 612.000000 408.000000"
 preserveAspectRatio="xMidYMid meet">
<metadata>
Created by potrace 1.16, written by Peter Selinger 2001-2019
</metadata>
<g transform="translate(0.000000,408.000000) scale(0.100000,-0.100000)"
fill="#000000" stroke="none">
<path d="M3063 3377 c-33 -34 -72 -85 -86 -112 -39 -78 -76 -210 -90 -320 -8
-69 -13 -88 -15 -61 -3 34 -5 36 -16 20 -11 -15 -14 -10 -20 42 -5 38 -22 89
-50 144 -34 70 -50 91 -90 118 -52 34 -78 43 -51 15 20 -20 38 -63 29 -72 -3
-3 -17 7 -30 22 -28 33 -31 22 -7 -28 12 -26 14 -38 6 -46 -9 -9 -16 -7 -29 5
-28 29 -28 9 1 -25 14 -18 48 -43 75 -55 69 -32 84 -61 81 -150 l-1 -32 -63
62 c-35 34 -94 77 -132 98 -67 34 -212 85 -220 76 -3 -2 -2 -20 1 -40 5 -30
10 -36 27 -32 12 2 24 -1 27 -6 3 -5 17 -11 30 -13 31 -5 36 -15 54 -112 12
-59 13 -82 4 -90 -8 -7 -9 -5 -4 9 9 25 -23 49 -43 33 -10 -9 -17 -7 -28 8
-14 19 -15 19 -8 -5 20 -66 22 -69 57 -63 18 2 40 11 49 19 9 8 33 20 53 25
31 9 44 7 81 -11 61 -30 142 -120 150 -168 4 -20 9 -44 11 -53 6 -21 -17 -30
-37 -15 -9 6 -23 25 -32 41 -18 33 -22 21 -7 -20 7 -19 7 -24 -2 -19 -8 5 -9
1 -5 -12 7 -18 6 -18 -9 1 -8 11 -27 41 -40 68 -32 61 -39 60 -14 -2 10 -27
16 -52 13 -55 -4 -3 -2 -6 4 -6 6 0 13 -6 16 -13 3 -8 -1 -14 -8 -14 -8 0 -13
3 -12 7 1 3 -15 26 -37 50 l-38 45 22 -44 c16 -33 19 -46 10 -55 -9 -8 -24 3
-62 44 -54 58 -53 53 0 -17 19 -25 28 -44 22 -48 -5 -3 -10 -3 -10 2 0 4 -13
15 -29 24 -25 14 -29 15 -27 2 1 -8 8 -18 16 -23 10 -6 8 -9 -6 -12 -23 -4
-51 22 -93 89 -28 46 -33 60 -31 110 3 86 4 84 -25 71 -14 -6 -25 -18 -25 -26
0 -8 -6 -12 -15 -8 -17 6 -21 -19 -5 -29 16 -10 12 -35 -5 -29 -18 7 -20 -7
-3 -24 7 -7 8 -12 3 -12 -6 0 -3 -5 5 -10 13 -9 13 -10 0 -10 -9 0 -20 3 -25
8 -6 4 7 -9 28 -29 33 -32 53 -80 27 -64 -6 4 -8 10 -6 14 3 4 -1 8 -9 8 -10
0 -9 -8 7 -31 l21 -31 -31 29 c-17 16 -29 34 -25 39 3 6 1 7 -5 4 -5 -4 -21 5
-34 20 -13 16 -48 47 -78 70 -30 23 -71 54 -90 68 l-35 27 30 -27 c17 -15 49
-44 72 -63 l41 -36 -34 -38 c-42 -47 -46 -98 -11 -136 15 -18 2 -12 -43 18
-58 38 -62 40 -37 13 l28 -30 -41 2 c-39 2 -40 2 -24 -16 16 -18 15 -18 -16
-9 -17 5 -39 15 -48 22 -15 12 -16 11 -2 -6 13 -16 12 -20 -10 -40 -25 -21
-31 -50 -17 -74 6 -8 2 -12 -10 -12 -10 0 2 -11 27 -24 25 -14 44 -29 43 -35
-4 -17 44 -24 79 -12 l33 11 -30 -24 c-22 -18 -38 -23 -60 -20 -37 6 -106 22
-131 29 -11 4 -6 -1 10 -11 17 -9 53 -20 80 -24 30 -5 -54 -7 -204 -7 l-255 2
-65 31 c-111 53 -165 67 -240 62 -135 -10 -272 -105 -328 -226 -30 -67 -43
-167 -32 -254 17 -140 126 -277 263 -331 50 -20 72 -20 691 -23 517 -2 641 -5
647 -16 7 -10 9 -9 9 4 0 14 12 16 73 16 l72 0 -36 -18 c-61 -32 -138 -109
-165 -165 -51 -110 -49 -299 7 -427 37 -88 67 -128 78 -109 5 7 12 11 17 9 5
-1 10 7 12 19 2 14 8 20 18 16 9 -3 14 2 14 16 0 12 5 21 10 21 14 0 13 -15
-5 -57 -8 -19 -15 -38 -15 -42 1 -12 68 119 74 144 4 15 11 23 17 19 8 -4 9 1
5 17 l-7 24 14 -24 c11 -18 16 -21 21 -10 3 8 5 5 3 -6 -2 -11 2 -26 8 -32 10
-9 12 -3 9 30 -2 23 -1 34 2 24 3 -9 10 -15 15 -12 5 4 9 -2 9 -12 0 -11 4
-23 9 -29 4 -5 15 -52 22 -104 l14 -95 5 202 c4 142 9 206 18 215 6 6 12 26
12 42 1 39 14 18 24 -37 11 -58 25 -43 22 23 -2 33 1 60 6 60 5 0 6 5 3 10 -3
6 0 10 8 10 8 0 25 -30 41 -70 36 -91 53 -101 22 -13 -32 90 -41 133 -27 133
6 0 11 -4 11 -8 0 -5 7 -17 15 -28 13 -17 14 -16 8 17 -3 24 -1 39 7 44 7 5
11 4 8 -1 -2 -5 7 -20 20 -33 15 -14 23 -17 19 -8 -5 14 -2 15 20 6 15 -5 36
-9 47 -7 22 2 106 -46 119 -69 8 -13 70 -43 88 -43 5 0 7 11 3 25 -5 21 -3 24
12 18 13 -5 15 -3 9 8 -8 12 -6 12 8 0 18 -15 23 -26 7 -16 -5 3 -10 4 -10 1
0 -10 108 -65 159 -80 111 -32 328 -11 459 45 24 11 67 19 97 19 76 0 237 44
308 84 34 19 72 50 84 68 30 46 54 108 42 108 -6 0 -8 4 -4 9 3 5 1 12 -5 16
-13 8 -50 -4 -50 -16 0 -6 5 -7 10 -4 15 9 -28 -61 -47 -77 -9 -7 -38 -18 -65
-24 -50 -11 -50 -11 -45 12 6 33 -2 30 -14 -5 -13 -36 -72 -69 -135 -77 l-45
-5 26 50 c18 37 25 66 25 110 l0 60 -27 -27 c-24 -23 -26 -29 -13 -39 18 -13
19 -12 -43 -47 -26 -16 -44 -32 -41 -38 4 -7 -4 -8 -24 -4 -26 6 -34 2 -61
-31 -17 -21 -31 -42 -31 -48 0 -18 -178 -55 -263 -55 -86 0 -201 22 -260 50
-21 11 -35 13 -31 7 3 -7 -2 -3 -10 7 -9 11 -19 17 -22 13 -4 -3 -15 5 -26 18
-11 14 -25 25 -31 25 -8 0 -8 -3 -2 -8 6 -4 16 -16 24 -27 7 -11 -5 0 -28 25
-48 52 -97 132 -106 175 l-7 30 29 -35 c52 -65 62 -72 93 -65 16 4 31 2 35 -5
4 -6 26 -20 50 -31 26 -12 67 -47 100 -85 31 -35 60 -64 65 -64 19 0 -6 44
-56 100 -52 59 -81 100 -69 100 4 0 16 -5 28 -12 12 -6 38 -11 58 -9 19 1 75
-8 123 -19 48 -11 92 -18 97 -15 17 11 9 25 -13 26 -13 0 -48 8 -78 18 -51 17
-53 19 -28 25 15 4 29 14 32 22 4 11 30 14 108 15 82 1 95 3 63 10 -22 4 -67
8 -100 9 -71 1 -60 10 40 35 39 9 123 35 187 58 l117 40 -39 38 c-21 21 -45
51 -53 66 -36 69 -28 175 16 235 62 85 190 110 278 54 67 -42 92 -85 97 -163
5 -78 -14 -136 -61 -181 -33 -32 -102 -62 -144 -62 -21 0 -22 -2 -10 -14 8 -8
19 -34 26 -58 l12 -43 402 6 c336 4 409 8 443 21 146 57 235 162 255 302 24
169 -55 323 -201 390 -55 26 -57 26 -326 26 -222 0 -279 3 -318 16 -26 9 -48
15 -49 13 -1 -2 -9 -17 -17 -34 -11 -20 -26 -31 -48 -36 -19 -4 -47 -19 -63
-35 -25 -24 -38 -28 -97 -31 l-67 -3 45 14 c67 19 84 30 136 92 43 50 51 55
78 50 22 -4 26 -3 16 3 -17 11 -18 10 38 45 23 14 42 29 42 32 0 20 -373 -21
-599 -65 -73 -15 -71 -15 -71 20 0 28 -3 31 -24 25 -20 -5 -23 -3 -19 18 4 18
17 29 51 41 43 17 102 47 286 144 49 26 89 41 103 38 12 -2 24 1 27 7 3 7 5 7
5 -1 1 -7 8 -10 18 -6 11 4 14 3 9 -5 -11 -18 5 -14 52 13 24 14 48 22 53 19
10 -6 13 95 3 120 -5 13 -17 11 -84 -14 -90 -33 -203 -88 -208 -101 -2 -5 -9
-6 -15 -2 -7 3 -4 -3 6 -14 18 -21 18 -22 -45 -63 -94 -61 -256 -137 -310
-145 -27 -3 -48 -4 -48 -1 0 3 19 15 43 27 199 100 318 210 414 384 60 108 60
110 -15 121 -128 19 -254 -40 -437 -206 l-50 -45 49 60 49 60 -54 -53 c-30
-29 -58 -49 -62 -46 -4 4 -7 0 -7 -9 0 -11 -7 -14 -26 -11 -18 3 -23 1 -18 -7
4 -8 3 -9 -4 -5 -6 4 -9 13 -5 22 4 11 9 12 18 4 9 -8 15 -8 20 0 3 5 0 10 -7
10 -7 0 -5 5 6 11 14 9 20 8 27 -2 6 -9 9 -10 9 -2 0 6 -4 15 -10 18 -5 3 2
17 18 32 l27 26 -35 -26 c-19 -15 -84 -58 -144 -97 -83 -55 -103 -64 -85 -42
13 16 26 28 29 27 3 -2 6 7 6 19 1 12 29 49 65 85 l64 64 -60 -50 c-95 -79
-119 -92 -137 -82 -13 7 -15 5 -11 -14 4 -19 3 -20 -7 -5 -8 13 -7 23 2 38 7
11 16 20 20 20 5 0 8 5 8 12 0 11 88 156 119 194 9 11 2 6 -14 -10 -17 -17
-40 -44 -52 -61 -19 -25 -24 -27 -32 -15 -7 10 -6 17 1 21 9 6 8 12 -1 23 -8
9 -10 16 -5 16 13 0 10 81 -4 116 -8 18 -25 34 -43 41 -26 10 -29 16 -25 40 5
24 4 23 -6 -5 -8 -24 -15 -31 -27 -26 -9 4 -36 12 -61 19 -82 23 -100 35 -101
69 -2 60 3 131 9 140 3 6 7 20 8 33 2 13 12 36 23 52 12 16 21 33 21 37 0 4 7
16 17 26 9 10 14 20 11 23 -3 3 -32 -23 -65 -58z m415 -1124 c-3 -46 -4 -47
-41 -55 -21 -4 -60 -17 -87 -29 -67 -29 -90 -67 -90 -148 l0 -61 96 0 c94 0
95 0 88 -22 -20 -65 -19 -65 -89 -71 -37 -4 -74 -12 -81 -18 -11 -9 -14 -42
-14 -135 l0 -124 -50 0 -50 0 0 254 c0 230 2 259 20 300 25 60 88 105 188 133
114 32 114 32 110 -24z m172 -293 l0 -310 111 0 110 0 -3 -27 -3 -28 -140 0
-140 0 -2 338 -2 337 35 0 34 0 0 -310z m-2296 270 c190 -86 241 -360 96 -522
-60 -67 -126 -101 -206 -106 -216 -14 -364 258 -207 383 29 23 50 30 96 33
l60 5 -6 112 c-3 62 -3 116 1 120 13 13 117 -2 166 -25z m1736 -35 c0 -42 -2
-45 -26 -45 -41 0 -84 -50 -84 -99 l0 -41 55 0 c60 0 63 -5 40 -50 -13 -26
-21 -30 -55 -30 l-40 0 0 -170 0 -170 -50 0 -50 0 0 161 0 161 -41 49 -41 49
41 0 41 0 0 50 c0 28 7 64 15 80 27 51 104 97 168 99 26 1 27 -1 27 -44z
m-780 -29 c0 -41 -2 -44 -32 -50 -45 -9 -58 -24 -58 -67 l0 -39 55 0 55 0 -20
-40 c-18 -35 -25 -40 -55 -40 l-35 0 0 -129 c0 -141 0 -141 59 -150 28 -5 35
-11 38 -34 4 -26 3 -27 -47 -27 -63 0 -111 19 -133 53 -14 21 -17 50 -17 144
l0 118 -40 50 -40 50 38 5 c37 5 37 6 42 58 4 41 12 59 36 83 31 31 91 58 132
59 19 0 22 -5 22 -44z m-427 -178 c81 -55 97 -100 97 -270 l0 -129 -47 3 c-41
3 -48 6 -51 25 l-3 23 -31 -23 c-24 -18 -43 -22 -97 -22 -58 0 -74 4 -108 28
-58 40 -84 93 -85 172 0 52 5 73 25 108 26 44 76 89 119 107 41 18 141 5 181
-22z m743 21 c31 -8 59 -26 89 -55 53 -54 65 -100 65 -254 l0 -110 -49 0 c-44
0 -49 3 -55 25 l-6 25 -30 -21 c-35 -26 -114 -36 -161 -20 -141 47 -181 257
-67 357 69 61 125 75 214 53z m2014 -19 c0 -27 -3 -30 -33 -30 -43 0 -113 -45
-132 -86 -11 -23 -15 -66 -15 -158 l0 -126 -35 0 -35 0 0 210 0 210 35 0 c34
0 35 -1 35 -37 0 -21 4 -33 8 -28 14 21 75 58 106 65 59 15 66 12 66 -20z
m338 -1 c73 -44 112 -113 112 -196 l0 -33 -185 0 c-205 0 -208 -1 -158 -61 51
-60 116 -73 193 -38 37 17 48 18 67 8 31 -17 25 -28 -28 -57 -38 -21 -54 -23
-122 -20 -68 4 -82 8 -115 35 -52 42 -80 87 -88 141 -14 96 32 182 121 228 62
32 142 29 203 -7z"/>
<path d="M1256 2212 c-4 -3 -6 -133 -6 -289 l0 -283 28 6 c89 22 141 65 184
151 28 57 32 77 32 137 -1 110 -46 195 -132 248 -35 22 -97 39 -106 30z"/>
<path d="M1081 1958 c-99 -53 -86 -203 24 -276 84 -56 85 -54 85 112 0 108 -3
146 -13 155 -22 18 -70 22 -96 9z"/>
<path d="M1730 1923 c-31 -11 -70 -58 -76 -91 -10 -52 12 -110 49 -132 97 -59
210 34 175 144 -20 63 -90 100 -148 79z"/>
<path d="M2515 1916 c-64 -28 -90 -107 -57 -173 39 -75 129 -84 190 -18 24 26
32 44 32 72 -1 92 -87 154 -165 119z"/>
<path d="M4793 1940 c-36 -22 -60 -54 -73 -99 l-9 -31 161 0 160 0 -7 28 c-9
37 -50 89 -85 107 -41 21 -109 19 -147 -5z"/>
<path d="M4032 1940 c-48 -30 -72 -75 -72 -140 0 -160 185 -222 264 -88 45 77
30 159 -40 216 -46 38 -101 43 -152 12z"/>
</g>
</svg>
