<?xml version="1.0" standalone="no"?>
<!DOCTYPE svg PUBLIC "-//W3C//DTD SVG 20010904//EN"
 "http://www.w3.org/TR/2001/REC-SVG-20010904/DTD/svg10.dtd">
<svg version="1.0" xmlns="http://www.w3.org/2000/svg"
 width="500.000000pt" height="500.000000pt" viewBox="0 0 500.000000 500.000000"
 preserveAspectRatio="xMidYMid meet">
<metadata>
Created by potrace 1.16, written by Peter Selinger 2001-2019
</metadata>
<g transform="translate(0.000000,500.000000) scale(0.100000,-0.100000)"
fill="#000000" stroke="none">
<path d="M1845 4263 c-151 -19 -276 -57 -409 -124 -219 -109 -382 -261 -515
-477 -28 -46 -51 -85 -51 -87 0 -3 -12 -30 -26 -61 -70 -154 -97 -288 -98
-489 -1 -181 12 -278 56 -410 145 -436 492 -750 943 -851 101 -22 307 -29 418
-14 192 27 419 120 574 236 l72 55 84 -84 c67 -67 82 -87 76 -103 -4 -10 -8
-42 -8 -70 -1 -39 5 -60 24 -88 42 -62 947 -958 982 -973 42 -17 82 -17 124 1
35 15 159 135 178 173 15 29 13 122 -2 150 -7 12 -223 234 -480 492 -352 354
-477 473 -504 482 -22 7 -60 9 -99 5 l-62 -6 -49 48 c-26 27 -63 65 -82 84
l-34 37 52 68 c50 65 154 260 178 333 113 334 88 686 -70 995 -41 80 -89 158
-114 183 -7 7 -13 17 -13 21 0 5 -44 53 -99 108 -198 200 -441 323 -718 363
-68 9 -263 12 -328 3z m319 -168 c160 -26 297 -79 437 -171 84 -55 228 -189
272 -254 17 -25 34 -47 39 -50 18 -13 108 -206 131 -282 43 -144 49 -195 45
-364 -6 -173 -21 -251 -81 -394 -65 -158 -181 -316 -307 -420 -142 -118 -291
-189 -500 -240 -80 -20 -336 -17 -423 4 -211 51 -379 139 -531 276 -125 113
-263 350 -313 537 -24 87 -27 116 -27 268 0 146 3 183 23 259 52 201 140 361
276 504 93 98 169 156 292 219 213 109 435 145 667 108z"/>
<path d="M2471 3773 c-24 -14 -73 -36 -110 -49 -58 -21 -122 -35 -400 -85 -96
-18 -242 -72 -324 -120 -70 -42 -181 -143 -223 -204 -50 -73 -97 -196 -123
-323 -32 -155 5 -393 80 -515 16 -28 16 -31 -3 -73 -10 -25 -18 -59 -16 -77
l4 -32 18 40 c93 209 205 396 299 499 11 13 17 36 17 65 0 114 35 287 77 383
27 60 44 75 63 53 9 -10 5 -33 -15 -97 -39 -122 -67 -298 -49 -298 4 0 32 24
63 53 31 28 102 86 156 127 164 123 243 198 326 311 29 38 55 69 58 69 4 0 12
-5 18 -11 37 -37 -145 -255 -347 -415 -80 -63 -180 -154 -180 -163 0 -11 304
-5 345 7 91 26 95 26 95 4 0 -48 -92 -71 -310 -77 -136 -3 -218 -22 -259 -58
-36 -33 -151 -210 -209 -325 l-52 -101 41 -11 c201 -55 466 -29 625 61 17 9
42 23 55 31 125 70 243 197 314 338 76 151 104 274 112 490 6 173 -11 364 -43
478 -17 61 -33 65 -103 25z"/>
</g>
</svg>
